<svg width="40" height="40" viewBox="0 0 40 40" xmlns="http://www.w3.org/2000/svg" fill="none"><circle opacity=".4" cx="20" cy="20" r="20" fill="#AFE764"/><ellipse cx="20.29" cy="20" rx="16.232" ry="16.471" fill="#AFE764"/><path fill-rule="evenodd" clip-rule="evenodd" d="M20.29 27.885c4.291 0 7.771-3.53 7.771-7.885s-3.479-7.885-7.771-7.885-7.771 3.53-7.771 7.885 3.479 7.885 7.771 7.885zm0 2.703c5.763 0 10.435-4.741 10.435-10.588 0-5.848-4.672-10.588-10.435-10.588-5.763 0-10.435 4.74-10.435 10.588 0 5.848 4.672 10.588 10.435 10.588zM25.793 21.577c-.441 2.519-2.702 4.393-5.361 4.393s-4.92-1.874-5.361-4.393h1.592c.418 1.598 1.922 2.816 3.769 2.816 1.847 0 3.351-1.218 3.769-2.816h1.592z" fill="#fff"/></svg>