<svg width="48" height="48" viewBox="0 0 48 48" xmlns="http://www.w3.org/2000/svg" fill="none"><path d="M24 0l2.784 3.808 3.706-2.914 1.656 4.419 4.353-1.803.405 4.703 4.677-.559-.876 4.639 4.654.726-2.092 4.23 4.286 1.958-3.153 3.507 3.6 3.044-3.98 2.524 2.647 3.905-4.512 1.355 1.498 4.476-4.709.084.238 4.715-4.557-1.192-1.04 4.604-4.067-2.381-2.241 4.152-3.276-3.392-3.276 3.392-2.241-4.152-4.067 2.381-1.04-4.604-4.557 1.192.238-4.715-4.709-.084 1.498-4.476-4.512-1.355 2.647-3.905-3.98-2.524 3.6-3.044-3.153-3.507 4.286-1.958-2.092-4.23 4.654-.726-.876-4.639 4.677.559.405-4.703 4.353 1.803 1.656-4.419 3.706 2.914 2.784-3.808z" fill="#FF4638"/><path d="M17.863 25.45c-.543 0-1.051-.077-1.524-.232-.473-.168-.884-.419-1.232-.754s-.619-.767-.814-1.296c-.195-.541-.292-1.18-.292-1.914 0-.735.097-1.366.292-1.895.209-.541.487-.986.835-1.334.348-.348.752-.606 1.211-.773.473-.168.981-.251 1.524-.251.557 0 1.072.084 1.545.251.473.168.877.425 1.211.773.348.348.619.793.814 1.334.195.529.292 1.16.292 1.895 0 .735-.098 1.373-.292 1.914-.181.529-.445.96-.793 1.296-.348.335-.759.587-1.232.754-.473.155-.988.232-1.545.232zm0-1.895c.459 0 .814-.161 1.065-.483.264-.335.397-.941.397-1.818 0-.877-.132-1.483-.397-1.818-.251-.348-.605-.522-1.065-.522-.445 0-.8.174-1.065.522-.25.335-.376.941-.376 1.818 0 .877.125 1.482.376 1.818.265.322.619.483 1.065.483zm3.403 7.135h-2.819l7.266-13.362h2.819l-7.266 13.362zm7.872.309c-.543 0-1.051-.084-1.524-.251-.473-.155-.884-.4-1.232-.735-.348-.335-.619-.767-.814-1.296-.195-.541-.292-1.18-.292-1.914 0-.735.098-1.366.292-1.895.209-.541.487-.986.835-1.334.348-.348.752-.606 1.211-.773.473-.168.981-.251 1.524-.251.557 0 1.072.084 1.545.251.473.168.877.425 1.211.773.348.348.619.793.814 1.334.195.529.292 1.16.292 1.895 0 .735-.097 1.373-.292 1.914-.181.529-.445.96-.793 1.296-.348.335-.759.58-1.232.735-.473.168-.988.251-1.545.251zm0-1.895c.459 0 .814-.161 1.065-.483.264-.335.397-.941.397-1.818 0-.877-.132-1.482-.397-1.818-.251-.348-.606-.522-1.065-.522-.445 0-.8.174-1.065.522-.251.335-.376.941-.376 1.818 0 .877.125 1.483.376 1.818.264.322.619.483 1.065.483z" fill="#fff"/></svg>