<svg width="36" height="41" viewBox="0 0 36 41" xmlns="http://www.w3.org/2000/svg" fill="none"><path d="M33 11h-4.143c.969-1.443 1.343-3.206 1.042-4.918-.301-1.712-1.253-3.242-2.656-4.268-1.403-1.026-3.149-1.47-4.872-1.237-1.723.232-3.289 1.122-4.371 2.484-1.081-1.361-2.648-2.251-4.371-2.484-1.723-.232-3.469.211-4.872 1.237s-2.355 2.556-2.656 4.268c-.301 1.712.073 3.475 1.042 4.918h-4.143c-.795.001-1.558.317-2.12.88s-.879 1.325-.88 2.12v6c.001.795.317 1.558.88 2.12.562.563 1.325.879 2.12.88v15c.001.795.317 1.558.88 2.12.562.563 1.325.879 2.12.88h24c.795-.001 1.558-.317 2.12-.88.563-.562.879-1.325.88-2.12v-15c.795-.001 1.558-.317 2.12-.88.563-.562.879-1.325.88-2.12v-6c-.001-.795-.317-1.558-.88-2.12-.562-.562-1.325-.879-2.12-.88zm-13.5-3.75c0-.742.22-1.467.632-2.083.412-.617.998-1.097 1.683-1.381.685-.284 1.439-.358 2.167-.213.727.145 1.396.502 1.92 1.026.525.524.882 1.193 1.026 1.92.145.727.07 1.481-.213 2.167-.284.685-.764 1.271-1.381 1.683-.617.412-1.342.632-2.083.632h-3.75v-3.75zm-6.75-3.75c.994.001 1.947.397 2.65 1.1.703.703 1.098 1.656 1.1 2.65v3.75h-3.75c-.995 0-1.948-.395-2.652-1.098-.703-.703-1.098-1.657-1.098-2.652 0-.995.395-1.948 1.098-2.652.703-.703 1.657-1.098 2.652-1.098zm-9.75 10.5h13.5v6h-13.5v-6zm3 9h10.5v15h-10.5v-15zm24.002 15h-10.502v-15h10.5l.002 15zm-10.502-18v-6h13.5l.002 6h-13.502z" fill="#fff"/></svg>