<svg width="20" height="20" viewBox="0 0 20 20" xmlns="http://www.w3.org/2000/svg" fill="none"><path d="M17.584.666h-15.167c-.963 0-1.75.788-1.75 1.75v15.167c0 .963.787 1.75 1.75 1.75h15.167c.962 0 1.75-.787 1.75-1.75v-15.167c0-.962-.788-1.75-1.75-1.75zm-4.083 2.917c0-.321.263-.583.583-.583h2.333c.321 0 .583.262.583.583v2.333c0 .321-.262.583-.583.583h-2.333c-.155 0-.303-.062-.412-.171-.109-.109-.171-.258-.171-.412v-2.333zm-3.5 2.917c.913.024 1.78.403 2.417 1.056.637.654.994 1.531.994 2.444s-.357 1.79-.994 2.444c-.637.654-1.505 1.033-2.417 1.056-.913-.024-1.78-.403-2.417-1.056-.637-.654-.994-1.531-.994-2.444s.357-1.79.994-2.444c.637-.654 1.504-1.033 2.417-1.056zm7 9.917c0 .321-.262.583-.583.583h-12.833c-.155 0-.303-.062-.412-.171-.109-.109-.171-.258-.171-.412v-7.583h1.283c-.173.848-.156 1.723.051 2.563.207.84.598 1.623 1.146 2.294.547.67 1.237 1.21 2.018 1.581.782.371 1.636.563 2.501.562.865 0 1.72-.192 2.501-.562.782-.371 1.471-.911 2.018-1.581.547-.67.939-1.454 1.146-2.294.207-.84.225-1.716.051-2.563h1.283v7.583z" fill="url(#a)"/><defs><linearGradient id="a" x1="10" y1="-4.305" x2="25.845" y2="13.197" gradientUnits="userSpaceOnUse"><stop stop-color="#4C67D5"/><stop offset=".198" stop-color="#9135B9"/><stop offset=".474" stop-color="#CD2E96"/><stop offset=".728" stop-color="#FF996B"/><stop offset="1" stop-color="#FFC752"/></linearGradient></defs></svg>