<svg width="32" height="20" viewBox="0 0 32 20" xmlns="http://www.w3.org/2000/svg" fill="none"><path fill-rule="evenodd" clip-rule="evenodd" d="M28.483 13.677s2.587 2.555 3.227 3.738l.029.056c.261.437.325.779.197 1.032-.216.418-.947.627-1.195.645h-4.573c-.318 0-.981-.083-1.787-.64-.616-.43-1.229-1.139-1.822-1.832-.886-1.029-1.653-1.922-2.429-1.922-.098 0-.195.016-.288.048-.587.186-1.333 1.022-1.333 3.251 0 .698-.55 1.094-.936 1.094h-2.094c-.714 0-4.429-.25-7.723-3.723-4.037-4.253-7.662-12.784-7.698-12.859-.226-.552.248-.853.76-.853h4.618c.619 0 .821.374.962.71.163.386.768 1.928 1.76 3.661 1.606 2.819 2.594 3.966 3.382 3.966.148 0 .294-.038.422-.112 1.03-.566.838-4.246.79-5.005 0-.147-.002-1.643-.53-2.366-.378-.518-1.021-.72-1.41-.794.104-.15.325-.381.608-.517.706-.352 1.981-.403 3.246-.403h.702c1.373.019 1.728.107 2.227.234 1.005.24 1.024.891.936 3.109-.026.634-.053 1.347-.053 2.187l-.008.582c-.03 1.138-.07 2.419.733 2.946.104.065.225.099.347.099.278 0 1.112 0 3.373-3.88.992-1.714 1.76-3.734 1.813-3.886.045-.085.179-.323.342-.419.116-.062.246-.093.378-.09h5.432c.592 0 .994.09 1.072.314.131.363-.026 1.472-2.506 4.826-.418.558-.784 1.042-1.106 1.464-2.248 2.95-2.248 3.099.133 5.339z" fill="#008DC9"/></svg>